Coordinates
version=1
nRows=17
nColumns=27
inDegrees=yes

Units are S.I. units (second, meters, Newtons, ...)
If the header above contains a line with 'inDegrees', this indicates whether rotational values are in degrees (yes) or radians (no).

endheader
time	pelvis_rotation	pelvis_tilt	pelvis_list	pelvis_tx	pelvis_ty	pelvis_tz	hip_flexion_r	hip_adduction_r	hip_rotation_r	knee_angle_r	knee_rotation_r	knee_adduction_r	knee_angle_r_beta	ankle_angle_r	subtalar_angle_r	mtp_angle_r	hip_flexion_l	hip_adduction_l	hip_rotation_l	knee_angle_l	knee_rotation_l	knee_adduction_l	knee_angle_l_beta	ankle_angle_l	subtalar_angle_l	mtp_angle_l
      4.65500000	      3.97989300	    -30.93775016	      5.27525534	     -0.03084267	      0.58715498	     -1.15869209	    105.80480760	    -44.31550220	      9.64885683	     89.36354159	      0.00000000	      9.92283914	      1.55968803	     13.05131610	      0.00000000	      0.00000000	     99.52152739	    -31.93897529	      4.86055896	     82.97092812	      0.00000000	     -9.93636250	      1.44811588	      9.79362147	      0.00000000	      0.00000000
      4.66000000	      3.98312375	    -31.03114668	      5.26208885	     -0.03106276	      0.58599603	     -1.15874721	    106.12277701	    -44.33721015	      9.78294120	     89.53941738	      0.00000000	      9.92316960	      1.56275764	     13.07328542	      0.00000000	      0.00000000	     99.83163485	    -31.95462627	      4.99588156	     83.16893361	      0.00000000	     -9.93656898	      1.45157173	      9.85512308	      0.00000000	      0.00000000
      4.66500000	      3.95167887	    -31.12142441	      5.25508413	     -0.03135558	      0.58477592	     -1.15881357	    106.46810648	    -44.30982905	      9.96021322	     89.72049950	      0.00000000	      9.92328446	      1.56591812	     13.08013179	      0.00000000	      0.00000000	    100.14105808	    -32.00126770	      5.12286128	     83.37519019	      0.00000000	     -9.93668666	      1.45517158	      9.86042768	      0.00000000	      0.00000000
      4.67000000	      3.91042811	    -31.18066449	      5.25726133	     -0.03156661	      0.58356362	     -1.15885049	    106.78397507	    -44.27295096	     10.14612934	     89.90910448	      0.00000000	      9.92355978	      1.56920990	     13.11727404	      0.00000000	      0.00000000	    100.39608377	    -32.07501178	      5.21577853	     83.57760966	      0.00000000	     -9.93688971	      1.45870447	      9.90673848	      0.00000000	      0.00000000
      4.67500000	      3.87907677	    -31.27045791	      5.25811088	     -0.03182598	      0.58233698	     -1.15889033	    107.13595052	    -44.24566580	     10.32654387	     90.09364846	      0.00000000	      9.92371826	      1.57243080	     13.11750015	      0.00000000	      0.00000000	    100.69684024	    -32.13282532	      5.32733416	     83.78529302	      0.00000000	     -9.93704502	      1.46232923	      9.94536557	      0.00000000	      0.00000000
      4.68000000	      3.80221322	    -31.34307063	      5.23786674	     -0.03205641	      0.58112051	     -1.15890207	    107.44075834	    -44.16441591	     10.49375560	     90.27820446	      0.00000000	      9.92396545	      1.57565191	     13.17684554	      0.00000000	      0.00000000	    100.97419681	    -32.24937487	      5.42822554	     83.98601157	      0.00000000	     -9.93731329	      1.46583243	      9.97714982	      0.00000000	      0.00000000
      4.68500000	      3.77578138	    -31.43415114	      5.20597672	     -0.03231913	      0.57986916	     -1.15890577	    107.76040238	    -44.15210837	     10.62086478	     90.46940708	      0.00000000	      9.92428301	      1.57898903	     13.21962131	      0.00000000	      0.00000000	    101.30711857	    -32.29610023	      5.58746399	     84.19468247	      0.00000000	     -9.93758116	      1.46947442	     10.00869388	      0.00000000	      0.00000000
      4.69000000	      3.78300972	    -31.47164505	      5.20603981	     -0.03247597	      0.57861723	     -1.15892175	    108.04206829	    -44.17990141	     10.78151678	     90.65768781	      0.00000000	      9.92450641	      1.58227514	     13.22095119	      0.00000000	      0.00000000	    101.56444785	    -32.32575842	      5.70903645	     84.39700647	      0.00000000	     -9.93773242	      1.47300564	     10.03382948	      0.00000000	      0.00000000
      4.69500000	      3.83475134	    -31.52500221	      5.21764339	     -0.03270579	      0.57728567	     -1.15892602	    108.37239091	    -44.24825652	     10.96238001	     90.86515395	      0.00000000	      9.92485224	      1.58589611	     13.27243269	      0.00000000	      0.00000000	    101.85727177	    -32.30048460	      5.84950886	     84.60516977	      0.00000000	     -9.93790812	      1.47663878	     10.07570766	      0.00000000	      0.00000000
      4.70000000	      3.75470410	    -31.60763579	      5.21342962	     -0.03293416	      0.57597627	     -1.15889025	    108.72387243	    -44.15333669	     11.16477568	     91.06753614	      0.00000000	      9.92506981	      1.58942835	     13.30461657	      0.00000000	      0.00000000	    102.14988600	    -32.43319188	      5.94161439	     84.81466105	      0.00000000	     -9.93820608	      1.48029509	     10.09134446	      0.00000000	      0.00000000
      4.70500000	      3.74144354	    -31.66740267	      5.20684374	     -0.03314499	      0.57465574	     -1.15885403	    109.04666462	    -44.14374690	     11.34008248	     91.27221869	      0.00000000	      9.92540031	      1.59300073	     13.31683234	      0.00000000	      0.00000000	    102.44801338	    -32.49254451	      6.07046233	     85.01873180	      0.00000000	     -9.93842707	      1.48385680	     10.05679337	      0.00000000	      0.00000000
      4.71000000	      3.71878292	    -31.71297252	      5.18430005	     -0.03331682	      0.57326620	     -1.15878454	    109.34351485	    -44.14021851	     11.49272192	     91.48856856	      0.00000000	      9.92565485	      1.59677675	     13.40581217	      0.00000000	      0.00000000	    102.74000460	    -32.56121574	      6.21749688	     85.23515493	      0.00000000	     -9.93869988	      1.48763409	     10.13181400	      0.00000000	      0.00000000
      4.71500000	      3.71303041	    -31.76554925	      5.17691391	     -0.03353866	      0.57181245	     -1.15875819	    109.68060294	    -44.13551018	     11.68973488	     91.71308352	      0.00000000	      9.92597042	      1.60069527	     13.42441673	      0.00000000	      0.00000000	    103.04891773	    -32.60733602	      6.36401873	     85.46461022	      0.00000000	     -9.93896244	      1.49163884	     10.18509562	      0.00000000	      0.00000000
      4.72000000	      3.76255789	    -31.81038866	      5.13550030	     -0.03366919	      0.57042717	     -1.15869783	    109.94424349	    -44.22069436	     11.79362631	     91.92420422	      0.00000000	      9.92630983	      1.60438003	     13.43978162	      0.00000000	      0.00000000	    103.38440447	    -32.59592797	      6.56464188	     85.68097874	      0.00000000	     -9.93924165	      1.49541519	     10.16735704	      0.00000000	      0.00000000
      4.72500000	      3.70711665	    -31.90037631	      5.14714218	     -0.03384008	      0.56898836	     -1.15860347	    110.32653607	    -44.13589941	     12.02429798	     92.14772946	      0.00000000	      9.92656389	      1.60828128	     13.51580505	      0.00000000	      0.00000000	    103.70709927	    -32.72150341	      6.66531179	     85.90553863	      0.00000000	     -9.93955645	      1.49933449	     10.16545192	      0.00000000	      0.00000000
      4.73000000	      3.80283069	    -31.90861248	      5.14049101	     -0.03393070	      0.56753439	     -1.15854983	    110.61127995	    -44.27109735	     12.18398795	     92.38316502	      0.00000000	      9.92696472	      1.61239040	     13.53061253	      0.00000000	      0.00000000	    103.99186985	    -32.66655584	      6.84127393	     86.11686569	      0.00000000	     -9.93985231	      1.50302285	     10.19430426	      0.00000000	      0.00000000
      4.73500000	      3.72534944	    -31.97571959	      5.12793842	     -0.03406997	      0.56607183	     -1.15843698	    110.95204256	    -44.16644749	     12.39737242	     92.61318321	      0.00000000	      9.92717785	      1.61640498	     13.58635407	      0.00000000	      0.00000000	    104.30098798	    -32.81405049	      6.95878138	     86.33757848	      0.00000000	     -9.94021319	      1.50687501	     10.19288418	      0.00000000	      0.00000000
